<?xml version="1.0" standalone="no"?>
<!DOCTYPE svg PUBLIC "-//W3C//DTD SVG 20010904//EN"
 "http://www.w3.org/TR/2001/REC-SVG-20010904/DTD/svg10.dtd">
<svg version="1.0" xmlns="http://www.w3.org/2000/svg"
 width="661.000000pt" height="661.000000pt" viewBox="0 0 661.000000 661.000000"
 preserveAspectRatio="xMidYMid meet">
<metadata>
Created by potrace 1.11, written by Peter Selinger 2001-2013
</metadata>
<g transform="translate(0.000000,661.000000) scale(0.100000,-0.100000)"
fill="#000000" stroke="none">
<path d="M25 6585 l-25 -24 0 -3251 0 -3251 25 -24 24 -25 3256 0 c3242 0
3255 0 3275 20 20 20 20 33 20 3280 0 3247 0 3260 -20 3280 -20 20 -33 20
-3275 20 l-3256 0 -24 -25z m5735 -1205 l0 -190 195 0 195 0 0 -2120 0 -2120
-2670 0 -2670 0 0 195 0 195 -190 0 -190 0 0 2115 0 2115 2665 0 2665 0 0
-190z"/>
<path d="M460 3455 l0 -2085 175 0 175 0 0 1910 0 1910 2460 0 2460 0 0 175 0
175 -2635 0 -2635 0 0 -2085z"/>
<path d="M840 3265 l0 -1895 2445 0 2445 0 0 1895 0 1895 -2445 0 -2445 0 0
-1895z m3555 1125 c97 -21 236 -84 316 -144 84 -62 160 -181 194 -303 6 -23 6
-23 -103 -23 l-110 0 -7 38 c-36 194 -231 313 -515 316 -190 2 -324 -47 -423
-153 -64 -70 -87 -127 -87 -218 0 -188 155 -307 605 -463 177 -61 373 -153
459 -214 34 -24 91 -75 127 -114 104 -109 139 -204 139 -370 0 -174 -48 -291
-170 -413 -142 -142 -318 -207 -585 -216 -444 -15 -762 151 -871 453 -13 35
-24 83 -24 104 l0 40 105 0 105 0 5 -27 c32 -151 56 -203 125 -271 69 -68 187
-126 299 -148 105 -20 334 -15 426 10 143 40 238 104 279 189 74 153 44 352
-71 463 -104 101 -233 168 -523 271 -85 30 -214 84 -287 119 -119 58 -140 73
-221 152 -124 122 -151 187 -152 362 0 135 22 208 93 312 154 224 509 325 872
248z m-1567 -922 c-4 -1006 -1 -955 -67 -1086 -58 -114 -164 -200 -301 -243
-92 -29 -323 -37 -443 -16 -121 21 -222 70 -296 144 -81 82 -115 158 -135 311
l-6 42 138 0 139 0 12 -67 c16 -92 55 -166 115 -220 75 -67 104 -77 231 -77
95 -1 116 2 151 21 83 44 148 149 165 266 5 34 9 461 9 950 l0 887 145 0 146
0 -3 -912z"/>
<path d="M5767 5153 c-4 -3 -7 -863 -7 -1910 l0 -1903 -2460 0 -2460 0 0 -180
0 -180 2640 0 2640 0 0 2090 0 2090 -173 0 c-96 0 -177 -3 -180 -7z"/>
</g>
</svg>
